<?xml version="1.0" encoding="UTF-8" standalone="no"?>
<!DOCTYPE svg PUBLIC "-//W3C//DTD SVG 1.1//EN" "http://www.w3.org/Graphics/SVG/1.1/DTD/svg11.dtd">
<!-- Created with Vectornator (http://vectornator.io/) -->
<svg height="100%" stroke-miterlimit="10" style="fill-rule:nonzero;clip-rule:evenodd;stroke-linecap:round;stroke-linejoin:round;" version="1.1" viewBox="0 0 32 32" width="100%" xml:space="preserve" xmlns="http://www.w3.org/2000/svg" xmlns:vectornator="http://vectornator.io" xmlns:xlink="http://www.w3.org/1999/xlink">
<defs/>
<g id="Untitled" vectornator:layerName="Untitled">
<path d="M32 24.795C30.836 25.091 30.116 24.808 29.47 23.838L24.876 17.482L24.212 16.602L24.212 16.602L18.847 23.859C18.234 24.732 17.591 25.112 16.447 24.803L23.317 15.581L16.921 7.251C18.021 7.037 18.781 7.146 19.456 8.131L24.221 14.566L24.221 14.566L29.021 8.166C29.636 7.293 30.297 6.961 31.401 7.283L28.921 10.571L25.561 14.946C25.161 15.446 25.216 15.788 25.584 16.271L32 24.795ZM0.008 15.427L0.57 12.663C2.1 7.193 8.37 4.92 12.694 8.3C15.221 10.288 15.849 13.1 15.724 16.25L1.48 16.25C1.266 21.92 5.347 25.342 10.55 23.596C12.375 22.983 13.45 21.554 13.988 19.766C14.261 18.87 14.713 18.73 15.555 18.986C15.125 21.222 14.155 23.09 12.105 24.259C9.042 26.009 4.67 25.443 2.37 23.011C1 21.6 0.434 19.812 0.18 17.9C0.14 17.584 0.06 17.283 0 16.98C0.00533333 16.4627 0.008 15.9453 0.008 15.428L0.008 15.427ZM1.506 15.047L14.378 15.047C14.294 10.947 11.741 8.035 8.252 8.01C4.422 7.98 1.672 10.823 1.506 15.047Z" fill="#f5891d" fill-rule="nonzero" opacity="1" stroke="none" vectornator:blendMode="overlay" vectornator:layerName="path"/>
</g>
</svg>
