<?xml version="1.0" encoding="UTF-8" standalone="no"?>
<!DOCTYPE svg PUBLIC "-//W3C//DTD SVG 1.1//EN" "http://www.w3.org/Graphics/SVG/1.1/DTD/svg11.dtd">
<!-- Created with Vectornator (http://vectornator.io/) -->
<svg height="100%" stroke-miterlimit="10" style="fill-rule:nonzero;clip-rule:evenodd;stroke-linecap:round;stroke-linejoin:round;" version="1.1" viewBox="0 0 48 48" width="100%" xml:space="preserve" xmlns="http://www.w3.org/2000/svg" xmlns:vectornator="http://vectornator.io" xmlns:xlink="http://www.w3.org/1999/xlink">
<defs/>
<g id="github_00000178918564504449926280000008731996709616696990_" vectornator:layerName="github_00000178918564504449926280000008731996709616696990_">
<path d="M30 44.004L30 34.004C30 33.12 29.803 32.282 29.458 31.525C30.283 31.358 31.108 31.167 31.93 30.924C34.457 30.178 38.084 27.085 39.156 24.061C40.344 20.705 40.344 17.301 39.156 13.945L39.155 13.944C38.942 13.341 38.618 12.733 38.157 12.076C39.005 8.922 38.41 6.284 38.382 6.161L38.017 4.597L36.411 4.616C36.261 4.618 32.931 4.679 29.687 6.571C25.9322 5.837 22.0708 5.837 18.316 6.571C15.073 4.679 11.743 4.618 11.592 4.616L9.984 4.597L9.619 6.161C9.591 6.284 8.996 8.922 9.844 12.076C9.383 12.733 9.059 13.342 8.845 13.945C7.658 17.301 7.658 20.705 8.846 24.062C9.916 27.085 13.543 30.178 16.071 30.924C16.893 31.167 17.718 31.358 18.543 31.525C18.1857 32.3026 18.0005 33.1482 18 34.004L18 35.285C17.938 35.321 17.873 35.35 17.813 35.393C17.524 35.604 14.944 37.36 12.308 35.483C11.378 34.537 10.922 33.844 10.482 33.174C9.494 31.674 8.641 30.588 5.894 29.214C4.90569 28.72 3.70402 29.1207 3.21 30.109C2.71598 31.0973 3.11669 32.299 4.105 32.793C6.096 33.788 6.446 34.318 7.14 35.374C7.655 36.155 8.295 37.128 9.585 38.418L9.8 38.604C11.492 39.874 13.247 40.327 14.853 40.327C15.9269 40.3214 16.9917 40.1296 18 39.76L18 44.013C18 44.013 30 44.004 30 44.004Z" fill="#d9b650" fill-rule="nonzero" opacity="1" stroke="none" vectornator:layerName="path"/>
</g>
</svg>
