<?xml version="1.0" encoding="UTF-8" standalone="no"?>
<!DOCTYPE svg PUBLIC "-//W3C//DTD SVG 1.1//EN" "http://www.w3.org/Graphics/SVG/1.1/DTD/svg11.dtd">
<!-- Created with Vectornator (http://vectornator.io/) -->
<svg height="100%" stroke-miterlimit="10" style="fill-rule:nonzero;clip-rule:evenodd;stroke-linecap:round;stroke-linejoin:round;" version="1.1" viewBox="0 0 44 44" width="100%" xml:space="preserve" xmlns="http://www.w3.org/2000/svg" xmlns:vectornator="http://vectornator.io" xmlns:xlink="http://www.w3.org/1999/xlink">
<defs/>
<g id="Icons" vectornator:layerName="Icons">
<path d="M44 42L34.2754 42L34.2754 27.9384C34.2754 24.2578 32.7542 21.7452 29.4092 21.7452C26.8507 21.7452 25.4278 23.4407 24.7655 25.0749C24.5172 25.6614 24.556 26.4785 24.556 27.2955L24.556 42L14.9219 42C14.9219 42 15.0461 17.0912 14.9219 14.827L24.556 14.827L24.556 19.0916C25.1251 17.227 28.2037 14.5658 33.1164 14.5658C39.2114 14.5658 44 18.4744 44 26.8908L44 42L44 42ZM5.17921 11.4282L5.11712 11.4282C2.0127 11.4282 0 9.35096 0 6.71794C0 4.03368 2.0722 2 5.23871 2C8.40263 2 10.3481 4.02856 10.4102 6.71025C10.4102 9.34328 8.40263 11.4282 5.17921 11.4282L5.17921 11.4282L5.17921 11.4282ZM1.10983 14.827L9.68579 14.827L9.68579 42L1.10983 42L1.10983 14.827L1.10983 14.827Z" fill="#d9b650" fill-rule="evenodd" opacity="1" stroke="none" vectornator:layerName="path"/>
</g>
</svg>
