<?xml version="1.0" encoding="UTF-8" standalone="no"?>
<!DOCTYPE svg PUBLIC "-//W3C//DTD SVG 1.1//EN" "http://www.w3.org/Graphics/SVG/1.1/DTD/svg11.dtd">
<!-- Created with Vectornator (http://vectornator.io/) -->
<svg height="100%" stroke-miterlimit="10" style="fill-rule:nonzero;clip-rule:evenodd;stroke-linecap:round;stroke-linejoin:round;" version="1.1" viewBox="0 0 128 128" width="100%" xml:space="preserve" xmlns="http://www.w3.org/2000/svg" xmlns:vectornator="http://vectornator.io" xmlns:xlink="http://www.w3.org/1999/xlink">
<defs/>
<g id="Untitled" vectornator:layerName="Untitled">
<g opacity="1" vectornator:layerName="g">
<path d="M54.0679 53.9383C54.0679 48.3774 58.503 43.8694 63.9739 43.8694C69.4448 43.8694 73.8799 48.3774 73.8799 53.9383C73.8799 59.4992 69.4448 64.0072 63.9739 64.0072C58.503 64.0072 54.0679 59.4992 54.0679 53.9383Z" fill="#61dafb" fill-rule="nonzero" opacity="1" stroke="none" vectornator:layerName="circle"/>
<path d="M101.599 37.3335C99.6876 36.6269 97.689 35.9203 95.6036 35.302C96.1249 33.1823 96.5594 31.0625 96.907 29.0311C98.7318 17.3723 96.7332 9.15821 91.1719 5.97856C89.5209 5.007 87.6961 4.56538 85.6107 4.56538C79.5281 4.56538 71.7944 9.15821 63.9739 16.8424C56.1534 9.15821 48.4198 4.56538 42.3372 4.56538C40.2517 4.56538 38.4269 5.007 36.7759 5.97856C31.2146 9.24654 29.2161 17.4606 31.0409 29.0311C31.3884 31.0625 31.8229 33.1823 32.3443 35.302C30.2588 35.9203 28.2602 36.5386 26.3485 37.3335C15.4867 41.573 9.57789 47.4024 9.57789 53.9383C9.57789 60.4743 15.5736 66.3037 26.3485 70.5432C28.2602 71.2498 30.2588 71.9564 32.3443 72.5746C31.8229 74.6944 31.3884 76.8142 31.0409 78.8456C29.2161 90.5044 31.2146 98.7185 36.7759 101.898C38.4269 102.87 40.2517 103.311 42.3372 103.311C48.5067 103.311 56.2403 98.7185 63.9739 91.0343C71.7944 98.7185 79.5281 103.311 85.6107 103.311C87.6961 103.311 89.5209 102.87 91.1719 101.898C96.7332 98.6301 98.7318 90.416 96.907 78.8456C96.5594 76.8142 96.1249 74.6944 95.6036 72.5746C97.689 71.9564 99.6876 71.3381 101.599 70.5432C112.461 66.3037 118.37 60.4743 118.37 53.9383C118.37 47.4024 112.461 41.573 101.599 37.3335ZM88.7389 10.3947C92.3016 12.5145 93.5181 19.0505 92.0409 28.3245C91.7802 30.1793 91.3457 32.1224 90.8244 34.1538C86.3058 33.0939 81.5266 32.3874 76.4867 31.9457C73.5323 27.7062 70.491 23.9083 67.4497 20.4636C73.8799 14.016 80.397 9.59983 85.6976 9.59983C86.8272 9.59983 87.8699 9.8648 88.7389 10.3947ZM79.0067 62.7707C77.4426 65.5971 75.6178 68.4234 73.7061 71.2498C70.491 71.5148 67.2759 71.6031 63.9739 71.6031C60.585 71.6031 57.3699 71.5148 54.2417 71.2498C52.33 68.4234 50.5921 65.5971 49.028 62.7707C47.377 59.856 45.8129 56.853 44.4226 53.9383C45.8129 51.0237 47.377 48.0207 49.028 45.106C50.5921 42.2796 52.4169 39.4533 54.3286 36.6269C57.5437 36.3619 60.7588 36.2736 64.0608 36.2736C67.4497 36.2736 70.6648 36.3619 73.793 36.6269C75.7047 39.4533 77.4426 42.2796 79.0067 45.106C80.6577 48.0207 82.2218 51.0237 83.6121 53.9383C82.1349 56.853 80.6577 59.7677 79.0067 62.7707ZM86.2189 59.856C87.5224 62.9474 88.5651 65.9504 89.5209 68.9534C86.5665 69.66 83.4383 70.1899 80.1363 70.6315C81.1791 68.9534 82.3087 67.1869 83.2645 65.3321C84.3073 63.4773 85.2631 61.6225 86.2189 59.856ZM63.9739 83.7918C61.8884 81.4953 59.8899 79.0223 57.9782 76.4609C59.9768 76.5492 61.9753 76.6375 63.9739 76.6375C65.9725 76.6375 67.9711 76.5492 69.9696 76.4609C68.058 79.0223 66.0594 81.4953 63.9739 83.7918ZM47.8115 70.5432C44.5095 70.1016 41.3813 69.5716 38.4269 68.8651C39.3827 65.9504 40.4255 62.859 41.7289 59.7677C42.6847 61.5342 43.6406 63.389 44.6833 65.1555C45.726 67.0986 46.7688 68.7767 47.8115 70.5432ZM41.7289 48.0207C40.4255 44.9293 39.3827 41.9263 38.4269 38.9233C41.3813 38.2167 44.5095 37.6868 47.8115 37.2452C46.7688 38.9233 45.6392 40.6898 44.6833 42.5446C43.6406 44.3994 42.6847 46.2542 41.7289 48.0207ZM63.9739 24.0849C66.0594 26.3813 68.058 28.8544 69.9696 31.4158C67.9711 31.3275 65.9725 31.2391 63.9739 31.2391C61.9753 31.2391 59.9768 31.3275 57.9782 31.4158C59.8899 28.8544 61.8884 26.3813 63.9739 24.0849ZM83.2645 42.6329L80.1363 37.3335C83.4383 37.7751 86.5665 38.305 89.5209 39.0116C88.5651 41.9263 87.5224 45.0176 86.2189 48.109C85.2631 46.2542 84.3073 44.3994 83.2645 42.6329ZM35.907 28.3245C34.4297 19.0505 35.6463 12.5145 39.209 10.3947C40.0779 9.8648 41.1206 9.59983 42.2503 9.59983C47.4639 9.59983 53.981 13.9277 60.4981 20.4636C57.4568 23.82 54.4155 27.7062 51.4611 31.9457C46.4212 32.3874 41.642 33.1823 37.1235 34.1538C36.6021 32.1224 36.2545 30.1793 35.907 28.3245ZM14.444 53.9383C14.444 49.7871 19.397 45.3709 28.0864 42.103C29.8243 41.3964 31.736 40.7781 33.6477 40.2482C35.038 44.6644 36.7759 49.3455 38.8614 54.0267C36.7759 58.7078 34.9511 63.3007 33.6477 67.7168C21.6562 64.1839 14.444 58.8845 14.444 53.9383ZM39.209 97.4819C35.6463 95.3622 34.4297 88.8262 35.907 79.5522C36.1676 77.6974 36.6021 75.7543 37.1235 73.7229C41.642 74.7827 46.4212 75.4893 51.4611 75.931C54.4155 80.1705 57.4568 83.9684 60.4981 87.413C54.0679 93.8607 47.5508 98.2769 42.2503 98.2769C41.1206 98.2769 40.0779 98.0119 39.209 97.4819ZM92.0409 79.5522C93.5181 88.8262 92.3016 95.3622 88.7389 97.4819C87.8699 98.0119 86.8272 98.2769 85.6976 98.2769C80.4839 98.2769 73.9668 93.949 67.4497 87.413C70.491 84.0567 73.5323 80.1705 76.4867 75.931C81.5266 75.4893 86.3058 74.6944 90.8244 73.7229C91.3457 75.7543 91.6933 77.6974 92.0409 79.5522ZM99.8614 65.7737C98.1235 66.4803 96.2118 67.0986 94.3001 67.6285C92.9098 63.2123 91.1719 58.5312 89.0865 53.85C91.1719 49.1689 92.9967 44.576 94.3001 40.1598C106.292 43.6928 113.504 48.9922 113.504 53.9383C113.504 58.0896 108.464 62.5057 99.8614 65.7737Z" fill="#61dafb" fill-rule="nonzero" opacity="1" stroke="none" vectornator:layerName="path"/>
</g>
<g fill="#61dafb" opacity="1" stroke="none">
<path d="M11.8384 113.98C12.7954 113.98 13.5525 113.789 14.1097 113.406C14.6668 113.023 14.9454 112.333 14.9454 111.335C14.9454 110.262 14.5557 109.53 13.7764 109.141C13.3594 108.936 12.8023 108.833 12.105 108.833L7.12162 108.833L7.12162 113.98L11.8384 113.98ZM5.08109 107.08L12.0537 107.08C13.2022 107.08 14.149 107.247 14.8941 107.582C16.3091 108.225 17.0166 109.411 17.0166 111.14C17.0166 112.042 16.8304 112.781 16.4578 113.355C16.0852 113.929 15.564 114.391 14.8941 114.739C15.482 114.979 15.9246 115.293 16.222 115.683C16.5193 116.072 16.6851 116.705 16.7193 117.58L16.7911 119.6C16.8116 120.174 16.8594 120.601 16.9346 120.881C17.0577 121.36 17.2764 121.667 17.5909 121.804L17.5909 122.143L15.0889 122.143C15.0205 122.013 14.9659 121.845 14.9248 121.64C14.8838 121.435 14.8496 121.039 14.8223 120.451L14.6993 117.938C14.6514 116.954 14.2857 116.294 13.6021 115.959C13.2124 115.775 12.6006 115.683 11.7666 115.683L7.12162 115.683L7.12162 122.143L5.08109 122.143L5.08109 107.08Z"/>
<path d="M24.3277 110.915C25.107 110.915 25.8623 111.097 26.5938 111.463C27.3252 111.829 27.8824 112.302 28.2652 112.883C28.6343 113.437 28.8804 114.083 29.0035 114.821C29.1128 115.327 29.1675 116.134 29.1675 117.241L21.1182 117.241C21.1524 118.355 21.4156 119.249 21.9078 119.923C22.3999 120.596 23.1621 120.933 24.1944 120.933C25.1582 120.933 25.9273 120.615 26.5015 119.979C26.8296 119.61 27.062 119.183 27.1988 118.697L29.0137 118.697C28.9659 119.101 28.8069 119.55 28.5369 120.046C28.2669 120.541 27.9644 120.946 27.6294 121.261C27.0689 121.808 26.375 122.177 25.5479 122.368C25.1036 122.478 24.6011 122.532 24.0406 122.532C22.6734 122.532 21.5147 122.035 20.5645 121.04C19.6143 120.046 19.1392 118.653 19.1392 116.862C19.1392 115.098 19.6177 113.666 20.5747 112.565C21.5318 111.465 22.7828 110.915 24.3277 110.915ZM27.2705 115.775C27.1954 114.975 27.021 114.336 26.7476 113.857C26.2417 112.969 25.3975 112.524 24.2149 112.524C23.3672 112.524 22.6563 112.83 22.0821 113.442C21.5079 114.054 21.2037 114.832 21.1695 115.775L27.2705 115.775Z"/>
<path d="M32.8487 119.22C32.8487 119.753 33.0435 120.174 33.4331 120.481C33.8228 120.789 34.2842 120.943 34.8174 120.943C35.4668 120.943 36.0957 120.792 36.7041 120.492C37.7295 119.993 38.2422 119.176 38.2422 118.041L38.2422 116.554C38.0166 116.698 37.7261 116.817 37.3706 116.913C37.0152 117.009 36.6665 117.077 36.3247 117.118L35.2071 117.262C34.5371 117.351 34.0347 117.491 33.6997 117.682C33.1324 118.003 32.8487 118.516 32.8487 119.22ZM37.3194 115.488C37.7432 115.433 38.0269 115.255 38.1704 114.955C38.2525 114.791 38.2935 114.555 38.2935 114.247C38.2935 113.618 38.0696 113.162 37.6219 112.878C37.1741 112.594 36.5332 112.453 35.6993 112.453C34.7354 112.453 34.0518 112.712 33.6485 113.232C33.4229 113.519 33.2759 113.946 33.2076 114.514L31.4849 114.514C31.5191 113.16 31.9583 112.219 32.8025 111.689C33.6468 111.159 34.626 110.894 35.7403 110.894C37.0323 110.894 38.0816 111.14 38.8882 111.632C39.688 112.125 40.0879 112.89 40.0879 113.929L40.0879 120.256C40.0879 120.447 40.1272 120.601 40.2058 120.717C40.2845 120.834 40.4502 120.892 40.7032 120.892C40.7852 120.892 40.8775 120.886 40.98 120.876C41.0826 120.866 41.1919 120.851 41.3081 120.83L41.3081 122.194C41.021 122.276 40.8023 122.327 40.6519 122.348C40.5015 122.368 40.2964 122.378 40.0367 122.378C39.4009 122.378 38.9395 122.153 38.6524 121.702C38.502 121.462 38.396 121.124 38.3345 120.687C37.9585 121.179 37.4185 121.606 36.7144 121.968C36.0103 122.331 35.2344 122.512 34.3868 122.512C33.3682 122.512 32.5359 122.202 31.8899 121.584C31.2439 120.965 30.9209 120.191 30.9209 119.261C30.9209 118.243 31.2388 117.453 31.8745 116.893C32.5103 116.332 33.3443 115.987 34.3765 115.857L37.3194 115.488Z"/>
<path d="M47.3477 110.843C48.585 110.843 49.5916 111.144 50.3675 111.745C51.1433 112.347 51.6099 113.382 51.7671 114.852L49.9727 114.852C49.8633 114.175 49.6138 113.613 49.2242 113.165C48.8345 112.718 48.209 112.494 47.3477 112.494C46.1719 112.494 45.3311 113.068 44.8252 114.216C44.4971 114.961 44.333 115.881 44.333 116.975C44.333 118.075 44.5655 119.001 45.0303 119.753C45.4952 120.505 46.2266 120.881 47.2246 120.881C47.9903 120.881 48.597 120.647 49.0447 120.179C49.4925 119.711 49.8018 119.07 49.9727 118.256L51.7671 118.256C51.562 119.712 51.0494 120.777 50.229 121.45C49.4087 122.124 48.3594 122.46 47.0811 122.46C45.6455 122.46 44.5005 121.936 43.646 120.886C42.7915 119.837 42.3643 118.526 42.3643 116.954C42.3643 115.026 42.8326 113.526 43.7691 112.453C44.7056 111.379 45.8985 110.843 47.3477 110.843Z"/>
<path d="M53.982 108.095L55.8482 108.095L55.8482 111.161L57.6016 111.161L57.6016 112.668L55.8482 112.668L55.8482 119.835C55.8482 120.218 55.9781 120.475 56.2378 120.605C56.3814 120.68 56.6206 120.717 56.9556 120.717C57.0445 120.717 57.1402 120.716 57.2427 120.712C57.3453 120.709 57.4649 120.7 57.6016 120.687L57.6016 122.143C57.3897 122.204 57.1692 122.249 56.9402 122.276C56.7112 122.303 56.4634 122.317 56.1968 122.317C55.3355 122.317 54.751 122.096 54.4434 121.656C54.1358 121.215 53.982 120.642 53.982 119.938L53.982 112.668L52.4952 112.668L52.4952 111.161L53.982 111.161L53.982 108.095Z"/>
<path d="M65.5279 107.08L67.9375 107.08L75.5459 119.282L75.5459 107.08L77.4839 107.08L77.4839 122.143L75.1973 122.143L67.4761 109.951L67.4761 122.143L65.5279 122.143L65.5279 107.08Z"/>
<path d="M81.8623 119.22C81.8623 119.753 82.0572 120.174 82.4468 120.481C82.8365 120.789 83.2979 120.943 83.8311 120.943C84.4805 120.943 85.1094 120.792 85.7178 120.492C86.7432 119.993 87.2559 119.176 87.2559 118.041L87.2559 116.554C87.0303 116.698 86.7398 116.817 86.3843 116.913C86.0288 117.009 85.6802 117.077 85.3384 117.118L84.2207 117.262C83.5508 117.351 83.0484 117.491 82.7134 117.682C82.146 118.003 81.8623 118.516 81.8623 119.22ZM86.333 115.488C86.7569 115.433 87.0406 115.255 87.1841 114.955C87.2662 114.791 87.3072 114.555 87.3072 114.247C87.3072 113.618 87.0833 113.162 86.6355 112.878C86.1878 112.594 85.5469 112.453 84.7129 112.453C83.7491 112.453 83.0655 112.712 82.6621 113.232C82.4366 113.519 82.2896 113.946 82.2212 114.514L80.4986 114.514C80.5328 113.16 80.972 112.219 81.8162 111.689C82.6604 111.159 83.6397 110.894 84.7539 110.894C86.0459 110.894 87.0953 111.14 87.9019 111.632C88.7017 112.125 89.1016 112.89 89.1016 113.929L89.1016 120.256C89.1016 120.447 89.1409 120.601 89.2195 120.717C89.2981 120.834 89.4639 120.892 89.7168 120.892C89.7989 120.892 89.8912 120.886 89.9937 120.876C90.0962 120.866 90.2056 120.851 90.3218 120.83L90.3218 122.194C90.0347 122.276 89.816 122.327 89.6656 122.348C89.5152 122.368 89.3101 122.378 89.0503 122.378C88.4146 122.378 87.9532 122.153 87.6661 121.702C87.5157 121.462 87.4097 121.124 87.3482 120.687C86.9722 121.179 86.4322 121.606 85.7281 121.968C85.024 122.331 84.2481 122.512 83.4004 122.512C82.3819 122.512 81.5496 122.202 80.9036 121.584C80.2576 120.965 79.9346 120.191 79.9346 119.261C79.9346 118.243 80.2525 117.453 80.8882 116.893C81.524 116.332 82.3579 115.987 83.3902 115.857L86.333 115.488Z"/>
<path d="M92.4956 108.095L94.3619 108.095L94.3619 111.161L96.1153 111.161L96.1153 112.668L94.3619 112.668L94.3619 119.835C94.3619 120.218 94.4917 120.475 94.7515 120.605C94.8951 120.68 95.1343 120.717 95.4693 120.717C95.5581 120.717 95.6538 120.716 95.7564 120.712C95.8589 120.709 95.9786 120.7 96.1153 120.687L96.1153 122.143C95.9034 122.204 95.6829 122.249 95.4539 122.276C95.2249 122.303 94.9771 122.317 94.7105 122.317C93.8492 122.317 93.2647 122.096 92.9571 121.656C92.6495 121.215 92.4956 120.642 92.4956 119.938L92.4956 112.668L91.0088 112.668L91.0088 111.161L92.4956 111.161L92.4956 108.095Z"/>
<path d="M97.961 111.212L99.8374 111.212L99.8374 122.143L97.961 122.143L97.961 111.212ZM97.961 107.08L99.8374 107.08L99.8374 109.171L97.961 109.171L97.961 107.08Z"/>
<path d="M103.529 111.161L106.461 120.102L109.527 111.161L111.547 111.161L107.405 122.143L105.436 122.143L101.386 111.161L103.529 111.161Z"/>
<path d="M117.7 110.915C118.479 110.915 119.234 111.097 119.966 111.463C120.697 111.829 121.254 112.302 121.637 112.883C122.006 113.437 122.252 114.083 122.376 114.821C122.485 115.327 122.54 116.134 122.54 117.241L114.49 117.241C114.524 118.355 114.788 119.249 115.28 119.923C115.772 120.596 116.534 120.933 117.566 120.933C118.53 120.933 119.299 120.615 119.874 119.979C120.202 119.61 120.434 119.183 120.571 118.697L122.386 118.697C122.338 119.101 122.179 119.55 121.909 120.046C121.639 120.541 121.336 120.946 121.002 121.261C120.441 121.808 119.747 122.177 118.92 122.368C118.476 122.478 117.973 122.532 117.413 122.532C116.045 122.532 114.887 122.035 113.937 121.04C112.986 120.046 112.511 118.653 112.511 116.862C112.511 115.098 112.99 113.666 113.947 112.565C114.904 111.465 116.155 110.915 117.7 110.915ZM120.643 115.775C120.567 114.975 120.393 114.336 120.12 113.857C119.614 112.969 118.77 112.524 117.587 112.524C116.739 112.524 116.028 112.83 115.454 113.442C114.88 114.054 114.576 114.832 114.542 115.775L120.643 115.775Z"/>
</g>
</g>
</svg>
